<svg width="326" height="255" viewBox="0 0 326 255" fill="none" xmlns="http://www.w3.org/2000/svg">
<path d="M79.8792 149.403V199.448H211.502C218.108 199.448 223.49 198.714 227.65 197.123C231.686 195.533 234.867 193.453 237.191 190.883C239.515 188.436 240.983 185.621 241.839 182.685C242.573 179.748 243.063 176.934 243.063 174.487V173.141C243.063 170.326 242.573 167.512 241.839 164.698C240.983 161.883 239.515 159.314 237.191 157.111C234.867 155.031 231.686 153.196 227.65 151.727C223.49 150.137 218.108 149.403 211.502 149.403H79.8792ZM79.8792 53.8388V95.3191H204.652C210.157 95.3191 214.683 94.7073 218.353 93.606C222.023 92.3824 224.836 90.9141 226.916 88.9563C228.995 86.9986 230.463 84.7961 231.197 82.2265C232.053 79.7793 232.42 77.2097 232.42 74.7625V74.0283C232.42 71.3364 232.053 68.7668 231.197 66.3196C230.463 63.8724 228.995 61.7922 226.916 59.9568C224.836 58.1214 222.023 56.6531 218.353 55.5518C214.683 54.3282 210.157 53.8388 204.652 53.8388H79.8792ZM0 0H218.353C236.579 0 251.748 1.59069 263.736 4.77207C275.724 7.95346 285.265 12.3584 292.36 17.7423C299.455 23.2486 304.471 29.489 307.284 36.4635C310.098 43.4381 311.565 50.6574 311.565 58.2438V63.0158C311.565 71.3364 310.098 78.3109 306.917 84.3066C303.859 90.3023 300.189 95.1967 296.03 98.9899C291.749 102.905 287.345 105.964 282.574 108.167C277.926 110.247 274.134 111.838 271.198 112.817C275.479 113.918 280.739 115.753 287.1 118.445C293.339 121.015 299.333 124.808 305.082 129.702C310.832 134.597 315.725 140.96 319.761 148.546C323.92 156.255 326 165.677 326 176.934V181.706C326 191.739 324.41 201.161 321.229 210.094C317.926 219.026 312.299 226.857 304.226 233.464C296.152 240.072 285.265 245.334 271.687 249.249C258.109 253.042 240.983 255 220.432 255H0V0Z" fill="black"/>
</svg>
