<svg width="1660" height="429" viewBox="0 0 1660 429" fill="none" xmlns="http://www.w3.org/2000/svg">
<path d="M0 257.4V335.957H303.421V421.757H431.471V335.957H515.538V239.571H431.471V5.57142H291.73L0 257.4ZM303.421 239.571H151.432L303.421 109.2V239.571Z" fill="#E1E1E1"/>
<path d="M1122.44 205.029C1122.44 131.486 1088.48 0 842.955 0H818.459C573.495 0 538.977 131.486 538.977 205.029V221.743C538.977 294.729 573.495 429 818.459 429H842.955C1089.03 429 1122.44 294.171 1122.44 221.743V205.029ZM986.593 216.729C986.593 264.086 957.086 327.6 830.707 327.6C704.328 327.6 674.821 262.414 674.821 215.614V208.929C674.821 162.129 701.544 100.843 830.707 100.843C957.643 100.843 986.593 162.129 986.593 208.929V216.729Z" fill="#E1E1E1"/>
<path d="M1144.46 257.4V335.957H1447.88V421.757H1575.93V335.957H1660V239.571H1575.93V5.57142H1436.19L1144.46 257.4ZM1447.88 239.571H1295.89L1447.88 109.2V239.571Z" fill="#E1E1E1"/>
</svg>
