<svg width="155" height="31" viewBox="0 0 155 31" fill="none" xmlns="http://www.w3.org/2000/svg">
<path d="M9.31244 17.9403V23.773H24.6573C25.4274 23.773 26.0549 23.6875 26.5397 23.5021C27.0104 23.3167 27.3811 23.0742 27.6521 22.7748C27.9231 22.4895 28.0942 22.1615 28.194 21.8193C28.2796 21.477 28.3366 21.149 28.3366 20.8638V20.7069C28.3366 20.3789 28.2796 20.0509 28.194 19.7229C28.0942 19.3949 27.9231 19.0954 27.6521 18.8387C27.3811 18.5963 27.0104 18.3824 26.5397 18.2112C26.0549 18.0258 25.4274 17.9403 24.6573 17.9403H9.31244ZM9.31244 6.80243V11.6369H23.8587C24.5004 11.6369 25.0281 11.5656 25.4559 11.4373C25.8837 11.2946 26.2117 11.1235 26.4542 10.8953C26.6966 10.6672 26.8677 10.4105 26.9533 10.111C27.0531 9.82576 27.0959 9.52628 27.0959 9.24106V9.1555C27.0959 8.84175 27.0531 8.54227 26.9533 8.25705C26.8677 7.97183 26.6966 7.7294 26.4542 7.51548C26.2117 7.30157 25.8837 7.13043 25.4559 7.00208C25.0281 6.85947 24.5004 6.80243 23.8587 6.80243H9.31244ZM0 0.527588H25.4559C27.5808 0.527588 29.3492 0.712981 30.7467 1.08377C32.1443 1.45455 33.2567 1.96795 34.0838 2.59543C34.911 3.23718 35.4957 3.96449 35.8237 4.77737C36.1517 5.59025 36.3228 6.43164 36.3228 7.31583V7.87201C36.3228 8.84175 36.1517 9.65463 35.7809 10.3534C35.4243 11.0522 34.9965 11.6227 34.5116 12.0647C34.0125 12.5211 33.4991 12.8776 32.9429 13.1343C32.401 13.3768 31.9589 13.5621 31.6167 13.6762C32.1158 13.8046 32.729 14.0185 33.4706 14.3322C34.1979 14.6317 34.8967 15.0738 35.567 15.6443C36.2372 16.2147 36.8077 16.9563 37.2783 17.8404C37.7632 18.7389 38.0056 19.837 38.0056 21.149V21.7052C38.0056 22.8746 37.8202 23.9727 37.4494 25.0137C37.0644 26.0548 36.4084 26.9675 35.4671 27.7376C34.5259 28.5077 33.2567 29.1209 31.6737 29.5773C30.0907 30.0193 28.0942 30.2475 25.6983 30.2475H0V0.527588Z" fill="black"/>
<path d="M50.9179 0V22.3327H71.5678V29.7199H41.6055V0H50.9179Z" fill="black"/>
<path d="M85.9223 30.2476C84.0399 29.9053 82.4569 29.449 81.1877 28.8785C79.9042 28.2938 78.8631 27.6521 78.0788 26.9105C77.2944 26.1832 76.6954 25.4274 76.2676 24.643C75.8398 23.8587 75.5546 23.0743 75.4262 22.3042C75.2979 21.5341 75.2266 20.8068 75.2266 20.1365V19.7087H84.9383C84.9668 20.1508 85.0809 20.6499 85.2806 21.2061C85.4802 21.748 85.8938 22.2614 86.5213 22.7463C87.1345 23.2169 88.0329 23.6162 89.1738 23.9442C90.3147 24.258 91.8549 24.4148 93.7659 24.4148H94.3221C96.2758 24.4148 97.8303 24.3293 98.9854 24.1582C100.141 23.987 101.025 23.7446 101.624 23.4451C102.223 23.1314 102.608 22.7891 102.779 22.4183C102.95 22.0475 103.036 21.6625 103.036 21.2632C103.036 20.8353 102.95 20.4503 102.779 20.108C102.608 19.7515 102.251 19.452 101.724 19.1811C101.182 18.9244 100.397 18.7104 99.3562 18.5678C98.3294 18.4252 96.9461 18.3254 95.249 18.2684L90.1293 18.14C87.3627 18.0687 85.0381 17.7835 83.1842 17.3129C81.316 16.828 79.8186 16.2005 78.7062 15.4019C77.5796 14.6175 76.7953 13.7191 76.3247 12.7066C75.854 11.694 75.6259 10.6102 75.6259 9.44079V9.07C75.6259 7.95764 75.8398 6.85955 76.2534 5.77571C76.6527 4.70613 77.4655 3.73638 78.6492 2.88072C79.8329 2.02506 81.4729 1.34053 83.5835 0.798617C85.6799 0.270959 88.4323 0 91.8121 0H94.5645C98.087 0 100.953 0.28522 103.192 0.8414C105.431 1.39758 107.2 2.12489 108.469 3.02333C109.752 3.90752 110.637 4.92005 111.107 6.03241C111.592 7.15903 111.835 8.27139 111.835 9.39801V9.79731H102.166C102.109 9.49783 101.994 9.15557 101.823 8.75626C101.652 8.35695 101.267 7.9719 100.697 7.60112C100.126 7.23033 99.2849 6.90233 98.1583 6.63137C97.0459 6.37467 95.5057 6.23206 93.5662 6.23206H92.9245C91.1133 6.23206 89.7015 6.31763 88.6747 6.46024C87.6479 6.60285 86.8778 6.8025 86.3787 7.03068C85.8653 7.27312 85.5515 7.54407 85.4232 7.85782C85.2806 8.1573 85.2235 8.47104 85.2235 8.79904C85.2235 9.11279 85.2948 9.42653 85.4374 9.71175C85.5801 10.0112 85.8938 10.2679 86.3787 10.5104C86.8493 10.7528 87.5481 10.9525 88.4608 11.0951C89.3592 11.2377 90.5714 11.3232 92.0831 11.3518L97.0887 11.4373C99.8838 11.4801 102.265 11.694 104.262 12.0648C106.244 12.4499 107.87 12.9918 109.139 13.7048C110.394 14.4321 111.321 15.3306 111.906 16.4287C112.491 17.5125 112.79 18.796 112.79 20.2649V20.8211C112.79 22.0475 112.576 23.2597 112.163 24.4434C111.749 25.627 110.936 26.6823 109.695 27.6378C108.455 28.5791 106.686 29.3349 104.39 29.9196C102.109 30.49 99.0995 30.7753 95.3631 30.7753H92.6107C90.0295 30.7753 87.7905 30.6041 85.9223 30.2476Z" fill="black"/>
<path d="M116.41 0.630371H125.723V11.4545H145.702V0.630371H155V30.3503H145.702V18.642H125.723V30.3503H116.41V0.630371Z" fill="black"/>
</svg>
