<svg width="941" height="147" viewBox="0 0 941 147" fill="none" xmlns="http://www.w3.org/2000/svg">
<path d="M44.3184 85.3789V113.137H117.345C121.01 113.137 123.996 112.73 126.304 111.848C128.544 110.965 130.308 109.812 131.598 108.386C132.887 107.029 133.702 105.468 134.177 103.839C134.584 102.21 134.855 100.649 134.855 99.292V98.5455C134.855 96.9845 134.584 95.4235 134.177 93.8625C133.702 92.3015 132.887 90.8763 131.598 89.6546C130.308 88.5009 128.544 87.4828 126.304 86.6684C123.996 85.7861 121.01 85.3789 117.345 85.3789H44.3184ZM44.3184 32.3733V55.3808H113.545C116.599 55.3808 119.11 55.0415 121.146 54.4307C123.182 53.752 124.743 52.9376 125.897 51.8517C127.051 50.7658 127.865 49.5441 128.272 48.1189C128.747 46.7615 128.951 45.3363 128.951 43.9789V43.5717C128.951 42.0785 128.747 40.6533 128.272 39.2959C127.865 37.9385 127.051 36.7848 125.897 35.7667C124.743 34.7487 123.182 33.9343 121.146 33.3235C119.11 32.6448 116.599 32.3733 113.545 32.3733H44.3184ZM0 2.51099H121.146C131.258 2.51099 139.674 3.39328 146.325 5.15787C152.976 6.92246 158.27 9.36574 162.207 12.352C166.143 15.4061 168.926 18.8674 170.487 22.7359C172.048 26.6044 172.862 30.6087 172.862 34.8166V37.4635C172.862 42.0785 172.048 45.9471 170.283 49.2726C168.586 52.5982 166.55 55.313 164.243 57.4169C161.867 59.5887 159.424 61.2854 156.777 62.5071C154.198 63.6608 152.094 64.5431 150.465 65.0861C152.841 65.6969 155.759 66.7149 159.288 68.2081C162.75 69.6333 166.075 71.7372 169.265 74.452C172.455 77.1668 175.17 80.6959 177.409 84.9038C179.717 89.1795 180.871 94.4055 180.871 100.649V103.296C180.871 108.862 179.988 114.087 178.224 119.042C176.391 123.996 173.269 128.34 168.79 132.005C164.311 135.67 158.27 138.588 150.737 140.76C143.203 142.864 133.702 143.95 122.3 143.95H0V2.51099Z" fill="black"/>
<path d="M349.389 71.3302C349.389 67.2581 348.642 63.0502 347.217 58.7066C345.724 54.2951 342.941 50.2909 338.733 46.6938C334.593 43.0967 328.757 40.1105 321.223 37.803C313.758 35.4276 304.052 34.2738 292.175 34.2738C279.959 34.2738 270.186 35.4276 262.652 37.803C255.187 40.1105 249.418 43.0967 245.278 46.6938C241.138 50.2909 238.423 54.2951 236.998 58.7066C235.641 63.0502 234.894 67.2581 234.894 71.3302V73.6378C234.894 77.642 235.641 81.9178 237.134 86.465C238.559 90.9443 241.409 95.0843 245.549 98.885C249.757 102.686 255.594 105.875 263.06 108.319C270.525 110.762 280.23 112.052 292.175 112.052C304.052 112.052 313.758 110.83 321.155 108.387C328.553 106.011 334.39 102.957 338.53 99.1565C342.738 95.4237 345.588 91.3515 347.081 86.8043C348.642 82.325 349.389 78.0492 349.389 73.9771V71.3302ZM296.315 0C311.179 0 323.938 1.15377 334.593 3.46131C345.181 5.70099 354.275 8.75509 361.673 12.5557C369.071 16.3564 374.975 20.7 379.455 25.5866C383.866 30.4731 387.328 35.4954 389.839 40.6535C392.282 45.7436 393.911 50.9017 394.657 55.9918C395.404 61.1499 395.811 65.8328 395.811 69.9728V75.6738C395.811 79.8817 395.404 84.4968 394.657 89.5869C393.911 94.6771 392.282 99.8351 389.907 105.061C387.463 110.355 384.07 115.445 379.523 120.399C375.043 125.354 369.139 129.765 361.741 133.634C354.411 137.502 345.385 140.556 334.661 142.932C323.938 145.239 311.179 146.461 296.315 146.461H288.171C273.172 146.461 260.345 145.239 249.689 142.932C238.966 140.556 229.94 137.502 222.542 133.634C215.212 129.765 209.307 125.354 204.76 120.399C200.281 115.445 196.82 110.355 194.444 105.061C192.001 99.8351 190.44 94.6771 189.693 89.5869C188.879 84.4968 188.54 79.8817 188.54 75.6738V69.9728C188.54 65.8328 188.879 61.1499 189.693 55.9918C190.44 50.9017 192.001 45.7436 194.444 40.6535C196.82 35.4954 200.281 30.4731 204.76 25.5866C209.307 20.7 215.212 16.3564 222.542 12.5557C229.94 8.75509 238.966 5.70099 249.689 3.46131C260.345 1.15377 273.172 0 288.171 0H296.315Z" fill="black"/>
<path d="M455.943 2.51099V108.794H554.218V143.95H411.625V2.51099H455.943Z" fill="black"/>
<path d="M613.671 143.95C604.712 142.321 597.179 140.149 591.138 137.435C585.03 134.652 580.076 131.598 576.343 128.069C572.61 124.607 569.76 121.01 567.723 117.277C565.687 113.545 564.33 109.812 563.719 106.147C563.108 102.482 562.769 99.0207 562.769 95.8309V93.7948H608.988C609.123 95.8987 609.666 98.2742 610.617 100.921C611.567 103.5 613.535 105.943 616.521 108.251C619.44 110.491 623.715 112.391 629.145 113.952C634.574 115.445 641.904 116.192 650.999 116.192H653.645C662.944 116.192 670.341 115.784 675.839 114.97C681.336 114.155 685.544 113.002 688.394 111.576C691.245 110.083 693.077 108.454 693.892 106.69C694.706 104.925 695.113 103.093 695.113 101.193C695.113 99.1565 694.706 97.324 693.892 95.6951C693.077 93.9984 691.381 92.5732 688.869 91.2837C686.29 90.062 682.558 89.044 677.603 88.3653C672.717 87.6866 666.133 87.2115 658.057 86.9401L633.692 86.3292C620.525 85.9899 609.463 84.6325 600.64 82.3928C591.749 80.0853 584.623 77.0991 579.329 73.2984C573.967 69.5656 570.235 65.2899 567.995 60.4712C565.755 55.6525 564.669 50.4945 564.669 44.9292V43.1646C564.669 37.8708 565.687 32.6449 567.656 27.4869C569.556 22.3967 573.424 17.7817 579.058 13.7095C584.691 9.63738 592.496 6.37968 602.54 3.80066C612.517 1.28951 625.616 0 641.701 0H654.799C671.563 0 685.205 1.35738 695.86 4.00426C706.515 6.65115 714.931 10.1125 720.971 14.3882C727.08 18.5961 731.288 23.4148 733.527 28.7085C735.835 34.0702 736.988 39.364 736.988 44.7256V46.6259H690.973C690.702 45.2007 690.159 43.5718 689.345 41.6715C688.53 39.7712 686.698 37.9387 683.983 36.1741C681.268 34.4095 677.264 32.8485 671.902 31.559C666.608 30.3374 659.279 29.6587 650.048 29.6587H646.994C638.375 29.6587 631.656 30.0659 626.769 30.7446C621.883 31.4233 618.218 32.3735 615.843 33.4594C613.399 34.6131 611.906 35.9026 611.295 37.3958C610.617 38.821 610.345 40.3141 610.345 41.8751C610.345 43.3682 610.684 44.8613 611.363 46.2187C612.042 47.644 613.535 48.8656 615.843 50.0194C618.082 51.1731 621.408 52.1233 625.751 52.802C630.027 53.4807 635.796 53.8879 642.99 54.0236L666.812 54.4309C680.114 54.6345 691.448 55.6525 700.95 57.4171C710.384 59.2495 718.121 61.8286 724.161 65.222C730.134 68.6833 734.545 72.9591 737.328 78.185C740.11 83.343 741.536 89.4512 741.536 96.4417V99.0886C741.536 104.925 740.518 110.694 738.549 116.327C736.581 121.96 732.713 126.983 726.808 131.53C720.904 136.009 712.488 139.606 701.561 142.389C690.702 145.104 676.382 146.461 658.6 146.461H645.501C633.217 146.461 622.562 145.647 613.671 143.95Z" fill="black"/>
<path d="M757.281 2.51099H801.599V54.0235H896.684V2.51099H940.934V143.95H896.684V88.2294H801.599V143.95H757.281V2.51099Z" fill="black"/>
</svg>
