<svg width="1132" height="149" viewBox="0 0 1132 149" fill="none" xmlns="http://www.w3.org/2000/svg">
<path d="M45.0345 86.7586V114.966H119.241C122.966 114.966 126 114.552 128.345 113.655C130.621 112.759 132.414 111.586 133.724 110.138C135.034 108.759 135.862 107.172 136.345 105.517C136.759 103.862 137.034 102.276 137.034 100.897V100.138C137.034 98.5517 136.759 96.9655 136.345 95.3793C135.862 93.7931 135.034 92.3449 133.724 91.1035C132.414 89.9311 130.621 88.8966 128.345 88.069C126 87.1724 122.966 86.7586 119.241 86.7586H45.0345ZM45.0345 32.8966V56.2759H115.379C118.483 56.2759 121.034 55.9311 123.103 55.3104C125.172 54.6207 126.759 53.7931 127.931 52.6897C129.103 51.5862 129.931 50.3449 130.345 48.8966C130.828 47.5173 131.034 46.069 131.034 44.6897V44.2759C131.034 42.7586 130.828 41.3104 130.345 39.9311C129.931 38.5518 129.103 37.3793 127.931 36.3449C126.759 35.3104 125.172 34.4828 123.103 33.8621C121.034 33.1724 118.483 32.8966 115.379 32.8966H45.0345ZM0 2.55176H123.103C133.379 2.55176 141.931 3.44831 148.69 5.24141C155.448 7.03452 160.828 9.51727 164.828 12.5518C168.828 15.6552 171.655 19.1724 173.241 23.1035C174.828 27.0345 175.655 31.1035 175.655 35.3793V38.069C175.655 42.7586 174.828 46.6897 173.034 50.069C171.31 53.4483 169.241 56.2069 166.897 58.3449C164.483 60.5518 162 62.2759 159.31 63.5173C156.69 64.6897 154.552 65.5862 152.897 66.138C155.31 66.7586 158.276 67.7931 161.862 69.3104C165.379 70.7586 168.759 72.8966 172 75.6552C175.241 78.4138 178 82 180.276 86.2759C182.621 90.6207 183.793 95.9311 183.793 102.276V104.966C183.793 110.621 182.897 115.931 181.103 120.966C179.241 126 176.069 130.414 171.517 134.138C166.966 137.862 160.828 140.828 153.172 143.035C145.517 145.172 135.862 146.276 124.276 146.276H0V2.55176Z" fill="black"/>
<path d="M355.034 72.4828C355.034 68.3448 354.276 64.069 352.827 59.6552C351.31 55.1724 348.482 51.1034 344.207 47.4483C340 43.7931 334.069 40.7586 326.414 38.4138C318.827 36 308.965 34.8276 296.896 34.8276C284.482 34.8276 274.551 36 266.896 38.4138C259.31 40.7586 253.448 43.7931 249.241 47.4483C245.034 51.1034 242.276 55.1724 240.827 59.6552C239.448 64.069 238.689 68.3448 238.689 72.4828V74.8276C238.689 78.8966 239.448 83.2414 240.965 87.8621C242.414 92.4138 245.31 96.6207 249.517 100.483C253.793 104.345 259.724 107.586 267.31 110.069C274.896 112.552 284.758 113.862 296.896 113.862C308.965 113.862 318.827 112.621 326.345 110.138C333.862 107.724 339.793 104.621 344 100.759C348.276 96.9655 351.172 92.8276 352.689 88.2069C354.276 83.6552 355.034 79.3103 355.034 75.1724V72.4828ZM301.103 0C316.207 0 329.172 1.17241 340 3.51724C350.758 5.7931 360 8.89655 367.517 12.7586C375.034 16.6207 381.034 21.0345 385.586 26C390.069 30.9655 393.586 36.069 396.138 41.3103C398.62 46.4828 400.276 51.7241 401.034 56.8966C401.793 62.1379 402.207 66.8966 402.207 71.1034V76.8966C402.207 81.1724 401.793 85.8621 401.034 91.0345C400.276 96.2069 398.62 101.448 396.207 106.759C393.724 112.138 390.276 117.31 385.655 122.345C381.103 127.379 375.103 131.862 367.586 135.793C360.138 139.724 350.965 142.828 340.069 145.241C329.172 147.586 316.207 148.828 301.103 148.828H292.827C277.586 148.828 264.551 147.586 253.724 145.241C242.827 142.828 233.655 139.724 226.138 135.793C218.689 131.862 212.689 127.379 208.069 122.345C203.517 117.31 200 112.138 197.586 106.759C195.103 101.448 193.517 96.2069 192.758 91.0345C191.931 85.8621 191.586 81.1724 191.586 76.8966V71.1034C191.586 66.8966 191.931 62.1379 192.758 56.8966C193.517 51.7241 195.103 46.4828 197.586 41.3103C200 36.069 203.517 30.9655 208.069 26C212.689 21.0345 218.689 16.6207 226.138 12.7586C233.655 8.89655 242.827 5.7931 253.724 3.51724C264.551 1.17241 277.586 0 292.827 0H301.103Z" fill="black"/>
<path d="M463.31 2.55176V110.552H563.172V146.276H418.276V2.55176H463.31Z" fill="black"/>
<path d="M623.586 146.276C614.483 144.621 606.828 142.414 600.69 139.655C594.483 136.828 589.449 133.724 585.655 130.138C581.862 126.621 578.966 122.966 576.897 119.172C574.828 115.379 573.449 111.586 572.828 107.862C572.207 104.138 571.862 100.621 571.862 97.3793V95.3103H618.828C618.966 97.4483 619.517 99.8621 620.483 102.552C621.449 105.172 623.449 107.655 626.483 110C629.449 112.276 633.793 114.207 639.311 115.793C644.828 117.31 652.276 118.069 661.517 118.069H664.207C673.655 118.069 681.173 117.655 686.759 116.828C692.345 116 696.621 114.828 699.517 113.379C702.414 111.862 704.276 110.207 705.104 108.414C705.931 106.621 706.345 104.759 706.345 102.828C706.345 100.759 705.931 98.8966 705.104 97.2414C704.276 95.5172 702.552 94.069 700 92.7586C697.38 91.5172 693.586 90.4828 688.552 89.7931C683.586 89.1034 676.897 88.6207 668.69 88.3448L643.931 87.7241C630.552 87.3793 619.311 86 610.345 83.7241C601.311 81.3793 594.069 78.3448 588.69 74.4828C583.242 70.6897 579.449 66.3448 577.173 61.4483C574.897 56.5517 573.793 51.3103 573.793 45.6552V43.8621C573.793 38.4828 574.828 33.1724 576.828 27.931C578.759 22.7586 582.69 18.069 588.414 13.931C594.138 9.7931 602.069 6.48276 612.276 3.86207C622.414 1.31034 635.724 0 652.069 0H665.38C682.414 0 696.276 1.37931 707.104 4.06897C717.931 6.75862 726.483 10.2759 732.621 14.6207C738.828 18.8966 743.104 23.7931 745.38 29.1724C747.724 34.6207 748.897 40 748.897 45.4483V47.3793H702.138C701.862 45.931 701.311 44.2759 700.483 42.3448C699.655 40.4138 697.793 38.5517 695.035 36.7586C692.276 34.9655 688.207 33.3793 682.759 32.069C677.38 30.8276 669.931 30.1379 660.552 30.1379H657.449C648.69 30.1379 641.862 30.5517 636.897 31.2414C631.931 31.931 628.207 32.8966 625.793 34C623.311 35.1724 621.793 36.4828 621.173 38C620.483 39.4483 620.207 40.9655 620.207 42.5517C620.207 44.069 620.552 45.5862 621.242 46.9655C621.931 48.4138 623.449 49.6552 625.793 50.8276C628.069 52 631.449 52.9655 635.862 53.6552C640.207 54.3448 646.069 54.7586 653.38 54.8966L677.586 55.3103C691.104 55.5172 702.621 56.5517 712.276 58.3448C721.862 60.2069 729.724 62.8276 735.862 66.2759C741.931 69.7931 746.414 74.1379 749.242 79.4483C752.069 84.6897 753.517 90.8966 753.517 98V100.69C753.517 106.621 752.483 112.483 750.483 118.207C748.483 123.931 744.552 129.034 738.552 133.655C732.552 138.207 724 141.862 712.897 144.69C701.862 147.448 687.311 148.828 669.242 148.828H655.931C643.449 148.828 632.621 148 623.586 146.276Z" fill="black"/>
<path d="M769.517 2.55176H814.552V54.8966H911.172V2.55176H956.138V146.276H911.172V89.6552H814.552V146.276H769.517V2.55176Z" fill="black"/>
<path d="M1130.07 2.55176V35.1724H1022.97V56.4138H1127.52V89.3104H1022.97V112.897H1132V146.276H978.552V2.55176H1130.07Z" fill="black"/>
</svg>
