<svg width="738" height="147" viewBox="0 0 738 147" fill="none" xmlns="http://www.w3.org/2000/svg">
<path d="M44.3184 85.3789V113.137H117.345C121.01 113.137 123.996 112.73 126.304 111.848C128.544 110.965 130.308 109.812 131.598 108.386C132.887 107.029 133.702 105.468 134.177 103.839C134.584 102.21 134.855 100.649 134.855 99.292V98.5455C134.855 96.9845 134.584 95.4235 134.177 93.8625C133.702 92.3015 132.887 90.8763 131.598 89.6546C130.308 88.5009 128.544 87.4828 126.304 86.6684C123.996 85.7861 121.01 85.3789 117.345 85.3789H44.3184ZM44.3184 32.3733V55.3808H113.545C116.599 55.3808 119.11 55.0415 121.146 54.4307C123.182 53.752 124.743 52.9376 125.897 51.8517C127.051 50.7658 127.865 49.5441 128.272 48.1189C128.747 46.7615 128.951 45.3363 128.951 43.9789V43.5717C128.951 42.0785 128.747 40.6533 128.272 39.2959C127.865 37.9385 127.051 36.7848 125.897 35.7667C124.743 34.7487 123.182 33.9343 121.146 33.3235C119.11 32.6448 116.599 32.3733 113.545 32.3733H44.3184ZM0 2.51099H121.146C131.258 2.51099 139.674 3.39328 146.325 5.15787C152.976 6.92246 158.27 9.36574 162.207 12.352C166.143 15.4061 168.926 18.8674 170.487 22.7359C172.048 26.6044 172.862 30.6087 172.862 34.8166V37.4635C172.862 42.0785 172.048 45.9471 170.283 49.2726C168.586 52.5982 166.55 55.313 164.243 57.4169C161.867 59.5887 159.424 61.2854 156.777 62.5071C154.198 63.6608 152.094 64.5431 150.465 65.0861C152.841 65.6969 155.759 66.7149 159.288 68.2081C162.75 69.6333 166.075 71.7372 169.265 74.452C172.455 77.1668 175.17 80.6959 177.409 84.9038C179.717 89.1795 180.871 94.4055 180.871 100.649V103.296C180.871 108.862 179.988 114.087 178.224 119.042C176.391 123.996 173.269 128.34 168.79 132.005C164.311 135.67 158.27 138.588 150.737 140.76C143.203 142.864 133.702 143.95 122.3 143.95H0V2.51099Z" fill="black"/>
<path d="M242.318 0V106.283H340.593V141.439H198V0H242.318Z" fill="black"/>
<path d="M408.902 143.95C399.943 142.321 392.41 140.149 386.369 137.435C380.261 134.652 375.307 131.598 371.574 128.069C367.841 124.607 364.99 121.01 362.954 117.277C360.918 113.545 359.561 109.812 358.95 106.147C358.339 102.482 358 99.0207 358 95.8309V93.7948H404.219C404.354 95.8987 404.897 98.2742 405.848 100.921C406.798 103.5 408.766 105.943 411.752 108.251C414.671 110.491 418.946 112.391 424.376 113.952C429.805 115.445 437.135 116.192 446.23 116.192H448.876C458.174 116.192 465.572 115.784 471.07 114.97C476.567 114.155 480.775 113.002 483.625 111.576C486.476 110.083 488.308 108.454 489.123 106.69C489.937 104.925 490.344 103.093 490.344 101.193C490.344 99.1565 489.937 97.324 489.123 95.6951C488.308 93.9984 486.612 92.5732 484.1 91.2837C481.521 90.062 477.789 89.044 472.834 88.3653C467.948 87.6866 461.364 87.2115 453.288 86.9401L428.923 86.3292C415.756 85.9899 404.694 84.6325 395.871 82.3928C386.98 80.0853 379.854 77.0991 374.56 73.2984C369.198 69.5656 365.466 65.2899 363.226 60.4712C360.986 55.6525 359.9 50.4945 359.9 44.9292V43.1646C359.9 37.8708 360.918 32.6449 362.887 27.4869C364.787 22.3967 368.655 17.7817 374.289 13.7095C379.922 9.63738 387.727 6.37968 397.771 3.80066C407.748 1.28951 420.847 0 436.932 0H450.03C466.794 0 480.435 1.35738 491.091 4.00426C501.746 6.65115 510.162 10.1125 516.202 14.3882C522.311 18.5961 526.518 23.4148 528.758 28.7085C531.066 34.0702 532.219 39.364 532.219 44.7256V46.6259H486.204C485.933 45.2007 485.39 43.5718 484.575 41.6715C483.761 39.7712 481.929 37.9387 479.214 36.1741C476.499 34.4095 472.495 32.8485 467.133 31.559C461.839 30.3374 454.51 29.6587 445.279 29.6587H442.225C433.606 29.6587 426.887 30.0659 422 30.7446C417.114 31.4233 413.449 32.3735 411.073 33.4594C408.63 34.6131 407.137 35.9026 406.526 37.3958C405.848 38.821 405.576 40.3141 405.576 41.8751C405.576 43.3682 405.915 44.8613 406.594 46.2187C407.273 47.644 408.766 48.8656 411.073 50.0194C413.313 51.1731 416.639 52.1233 420.982 52.802C425.258 53.4807 431.027 53.8879 438.221 54.0236L462.043 54.4309C475.345 54.6345 486.679 55.6525 496.181 57.4171C505.615 59.2495 513.352 61.8286 519.392 65.222C525.365 68.6833 529.776 72.9591 532.559 78.185C535.341 83.343 536.767 89.4512 536.767 96.4417V99.0886C536.767 104.925 535.749 110.694 533.78 116.327C531.812 121.96 527.944 126.983 522.039 131.53C516.135 136.009 507.719 139.606 496.792 142.389C485.933 145.104 471.613 146.461 453.831 146.461H440.732C428.448 146.461 417.792 145.647 408.902 143.95Z" fill="black"/>
<path d="M554 3H598.318V54.5125H693.403V3H737.653V144.439H693.403V88.7184H598.318V144.439H554V3Z" fill="black"/>
</svg>
