<svg width="230" height="31" viewBox="0 0 230 31" fill="none" xmlns="http://www.w3.org/2000/svg">
<path d="M9.13445 17.5972V23.3185H24.186C24.9414 23.3185 25.5569 23.2345 26.0325 23.0527C26.4941 22.8708 26.8578 22.633 27.1236 22.3393C27.3893 22.0595 27.5572 21.7378 27.6551 21.4021C27.7391 21.0663 27.795 20.7446 27.795 20.4648V20.311C27.795 19.9892 27.7391 19.6675 27.6551 19.3458C27.5572 19.024 27.3893 18.7303 27.1236 18.4785C26.8578 18.2407 26.4941 18.0308 26.0325 17.863C25.5569 17.6811 24.9414 17.5972 24.186 17.5972H9.13445ZM9.13445 6.67224V11.4143H23.4026C24.0321 11.4143 24.5497 11.3444 24.9694 11.2185C25.389 11.0786 25.7107 10.9107 25.9485 10.6869C26.1863 10.4631 26.3542 10.2113 26.4381 9.91756C26.5361 9.63779 26.578 9.34403 26.578 9.06426V8.98033C26.578 8.67259 26.5361 8.37883 26.4381 8.09906C26.3542 7.81929 26.1863 7.58149 25.9485 7.37166C25.7107 7.16184 25.389 6.99398 24.9694 6.86808C24.5497 6.7282 24.0321 6.67224 23.4026 6.67224H9.13445ZM0 0.517334H24.9694C27.0536 0.517334 28.7882 0.699184 30.1591 1.06288C31.5299 1.42658 32.621 1.93017 33.4324 2.54566C34.2437 3.17514 34.8172 3.88855 35.1389 4.68589C35.4607 5.48323 35.6285 6.30854 35.6285 7.17583V7.72137C35.6285 8.67259 35.4607 9.46993 35.097 10.1554C34.7473 10.8408 34.3276 11.4003 33.852 11.834C33.3624 12.2816 32.8588 12.6313 32.3133 12.8831C31.7817 13.1209 31.3481 13.3028 31.0124 13.4147C31.5019 13.5406 32.1035 13.7504 32.8308 14.0581C33.5443 14.3519 34.2297 14.7855 34.8871 15.3451C35.5446 15.9046 36.1041 16.632 36.5658 17.4993C37.0414 18.3806 37.2792 19.4577 37.2792 20.7446V21.2902C37.2792 22.4372 37.0973 23.5143 36.7336 24.5355C36.3559 25.5566 35.7125 26.4519 34.7892 27.2073C33.866 27.9626 32.621 28.5641 31.0683 29.0118C29.5156 29.4454 27.5572 29.6692 25.2072 29.6692H0V0.517334Z" fill="black"/>
<path d="M72.012 14.7018C72.012 13.8625 71.8581 12.9953 71.5643 12.1C71.2566 11.1907 70.6831 10.3654 69.8158 9.62404C68.9625 8.88265 67.7595 8.26716 66.2068 7.79156C64.668 7.30196 62.6677 7.06416 60.2197 7.06416C57.7018 7.06416 55.6875 7.30196 54.1347 7.79156C52.596 8.26716 51.407 8.88265 50.5537 9.62404C49.7004 10.3654 49.1409 11.1907 48.8471 12.1C48.5673 12.9953 48.4135 13.8625 48.4135 14.7018V15.1774C48.4135 16.0028 48.5673 16.884 48.8751 17.8213C49.1688 18.7445 49.7564 19.5978 50.6097 20.3811C51.4769 21.1645 52.6799 21.822 54.2187 22.3255C55.7574 22.8291 57.7577 23.0949 60.2197 23.0949C62.6677 23.0949 64.668 22.8431 66.1928 22.3395C67.7175 21.8499 68.9205 21.2205 69.7738 20.4371C70.6411 19.6677 71.2286 18.8284 71.5364 17.8912C71.8581 16.968 72.012 16.0867 72.012 15.2474V14.7018ZM61.073 0C64.1365 0 66.7663 0.237803 68.9625 0.71341C71.1447 1.17503 73.0191 1.80451 74.5439 2.58786C76.0686 3.37121 77.2856 4.26647 78.2088 5.27364C79.1181 6.28081 79.8315 7.31595 80.3491 8.37907C80.8526 9.4282 81.1884 10.4913 81.3422 11.5405C81.4961 12.6036 81.58 13.5688 81.58 14.4221V15.5971C81.58 16.4644 81.4961 17.4156 81.3422 18.4647C81.1884 19.5139 80.8526 20.577 80.3631 21.6541C79.8595 22.7452 79.16 23.7943 78.2228 24.8155C77.2996 25.8366 76.0826 26.7459 74.5579 27.5432C73.0471 28.3406 71.1866 28.97 68.9765 29.4596C66.7663 29.9352 64.1365 30.187 61.073 30.187H59.3944C56.3029 30.187 53.6591 29.9352 51.463 29.4596C49.2528 28.97 47.3923 28.3406 45.8676 27.5432C44.3568 26.7459 43.1398 25.8366 42.2026 24.8155C41.2794 23.7943 40.566 22.7452 40.0764 21.6541C39.5728 20.577 39.2511 19.5139 39.0972 18.4647C38.9293 17.4156 38.8594 16.4644 38.8594 15.5971V14.4221C38.8594 13.5688 38.9293 12.6036 39.0972 11.5405C39.2511 10.4913 39.5728 9.4282 40.0764 8.37907C40.566 7.31595 41.2794 6.28081 42.2026 5.27364C43.1398 4.26647 44.3568 3.37121 45.8676 2.58786C47.3923 1.80451 49.2528 1.17503 51.463 0.71341C53.6591 0.237803 56.3029 0 59.3944 0H61.073Z" fill="black"/>
<path d="M93.9743 0.517334V22.4232H114.23V29.6692H84.8398V0.517334H93.9743Z" fill="black"/>
<path d="M126.484 29.6695C124.637 29.3337 123.084 28.8861 121.839 28.3266C120.58 27.7531 119.559 27.1236 118.79 26.3962C118.021 25.6828 117.433 24.9414 117.013 24.172C116.594 23.4026 116.314 22.6333 116.188 21.8779C116.062 21.1225 115.992 20.4091 115.992 19.7517V19.332H125.518C125.546 19.7657 125.658 20.2553 125.854 20.8008C126.05 21.3324 126.456 21.8359 127.071 22.3115C127.673 22.7732 128.554 23.1648 129.673 23.4866C130.792 23.7943 132.303 23.9482 134.177 23.9482H134.723C136.639 23.9482 138.164 23.8643 139.297 23.6964C140.43 23.5285 141.297 23.2907 141.885 22.997C142.472 22.6892 142.85 22.3535 143.018 21.9898C143.186 21.6261 143.27 21.2484 143.27 20.8568C143.27 20.4371 143.186 20.0594 143.018 19.7237C142.85 19.374 142.5 19.0802 141.983 18.8144C141.451 18.5626 140.682 18.3528 139.661 18.2129C138.653 18.0731 137.297 17.9751 135.632 17.9192L130.61 17.7933C127.896 17.7233 125.616 17.4436 123.798 16.982C121.965 16.5064 120.496 15.8909 119.405 15.1075C118.3 14.3381 117.531 13.4569 117.069 12.4637C116.608 11.4705 116.384 10.4074 116.384 9.26034V8.89664C116.384 7.80555 116.594 6.72844 116.999 5.66532C117.391 4.61618 118.188 3.66497 119.349 2.82566C120.51 1.98636 122.119 1.31491 124.189 0.783352C126.246 0.26578 128.945 0 132.261 0H134.96C138.416 0 141.227 0.279769 143.423 0.825318C145.62 1.37087 147.354 2.08428 148.599 2.96555C149.858 3.83283 150.725 4.82601 151.187 5.91711C151.663 7.02219 151.9 8.11329 151.9 9.21838V9.61005H142.416C142.36 9.3163 142.248 8.98057 142.081 8.5889C141.913 8.19722 141.535 7.81953 140.976 7.45583C140.416 7.09214 139.591 6.7704 138.486 6.50462C137.394 6.25283 135.884 6.11294 133.981 6.11294H133.352C131.575 6.11294 130.19 6.19688 129.183 6.33676C128.176 6.47664 127.421 6.67248 126.931 6.8963C126.428 7.1341 126.12 7.39988 125.994 7.70763C125.854 8.00138 125.798 8.30913 125.798 8.63086C125.798 8.93861 125.868 9.24635 126.008 9.52612C126.148 9.81988 126.456 10.0717 126.931 10.3095C127.393 10.5473 128.078 10.7431 128.973 10.883C129.855 11.0229 131.044 11.1068 132.527 11.1348L137.436 11.2187C140.178 11.2607 142.514 11.4705 144.473 11.8342C146.417 12.2119 148.012 12.7435 149.257 13.4429C150.488 14.1563 151.397 15.0376 151.97 16.1147C152.544 17.1778 152.838 18.4368 152.838 19.8776V20.4231C152.838 21.6261 152.628 22.8151 152.222 23.9762C151.817 25.1372 151.019 26.1724 149.802 27.1096C148.585 28.0328 146.851 28.7742 144.599 29.3477C142.36 29.9073 139.409 30.187 135.744 30.187H133.044C130.512 30.187 128.316 30.0192 126.484 29.6695Z" fill="black"/>
<path d="M156.082 0.517334H165.216V11.1346H184.814V0.517334H193.935V29.6692H184.814V18.1847H165.216V29.6692H156.082V0.517334Z" fill="black"/>
<path d="M229.213 0.517334V7.13386H207.489V11.4423H228.695V18.1148H207.489V22.8988H229.605V29.6692H198.48V0.517334H229.213Z" fill="black"/>
</svg>
